<svg
  xmlns="http://www.w3.org/2000/svg"
  x="0px" y="0px"
  viewBox="0 0 511 511"
>
	<path d="M400.5,464H399V39.5c0-12.958-10.542-23.5-23.5-23.5H367v-0.5C367,6.953,360.047,0,351.5,0h-192
		C150.953,0,144,6.953,144,15.5V16h-8.5C122.542,16,112,26.542,112,39.5V464h-1.5c-7.995,0-14.5,6.505-14.5,14.5v25
		c0,4.142,3.358,7.5,7.5,7.5h304c4.142,0,7.5-3.358,7.5-7.5v-25C415,470.505,408.495,464,400.5,464z M375.5,31
		c4.687,0,8.5,3.813,8.5,8.5V464h-17V31H375.5z M159,464V295h193v169H159z M159,231h193v49H159V231z M352,216H159V55h193V216z
		 M159.5,15h192c0.276,0,0.5,0.225,0.5,0.5V40H159V15.5C159,15.225,159.224,15,159.5,15z M127,39.5c0-4.687,3.813-8.5,8.5-8.5h8.5
		v433h-17V39.5z M400,496H111v-17h289V496z"/>
	<path d="M263.5,184h-64c-4.142,0-7.5,3.358-7.5,7.5s3.358,7.5,7.5,7.5h64c4.142,0,7.5-3.358,7.5-7.5S267.642,184,263.5,184z"/>
	<path d="M279.5,248h-96c-4.142,0-7.5,3.358-7.5,7.5s3.358,7.5,7.5,7.5h96c4.142,0,7.5-3.358,7.5-7.5S283.642,248,279.5,248z"/>
	<path d="M188.8,434.2c-1.39-1.4-3.33-2.2-5.3-2.2c-1.97,0-3.91,0.8-5.3,2.2c-1.4,1.39-2.2,3.33-2.2,5.3s0.8,3.91,2.2,5.3
		c1.39,1.4,3.32,2.2,5.3,2.2c1.97,0,3.91-0.8,5.3-2.2c1.4-1.39,2.2-3.33,2.2-5.3S190.2,435.59,188.8,434.2z"/>
	<path d="M191.5,167h128c8.547,0,15.5-6.953,15.5-15.5v-64c0-8.547-6.953-15.5-15.5-15.5h-128c-8.547,0-15.5,6.953-15.5,15.5v64
		C176,160.047,182.953,167,191.5,167z M319.5,152H303v-33h17v32.5C320,151.775,319.776,152,319.5,152z M320,87.5V104h-17V87h16.5
		C319.776,87,320,87.225,320,87.5z M191,87.5c0-0.275,0.224-0.5,0.5-0.5H288v65h-96.5c-0.276,0-0.5-0.225-0.5-0.5V87.5z"/>
</svg>
